<?xml version="1.0" encoding="UTF-8"?>
<svg xmlns="http://www.w3.org/2000/svg" xmlns:xlink="http://www.w3.org/1999/xlink" viewBox="0 0 240 240" width="240px" height="240px">
<g id="surface194095">
<path style=" stroke:none;fill-rule:nonzero;fill:rgb(7.450981%,31.37255%,30.980393%);fill-opacity:1;" d="M 115 20 C 81.863281 20 55 46.863281 55 80 C 55 113.136719 81.863281 140 115 140 C 148.136719 140 175 113.136719 175 80 C 175 46.863281 148.136719 20 115 20 Z M 115 20 "/>
<path style=" stroke:none;fill-rule:nonzero;fill:rgb(7.450981%,63.921571%,66.274512%);fill-opacity:1;" d="M 167.5 80 C 138.503906 80 115 103.503906 115 132.5 C 115 161.496094 138.503906 185 167.5 185 C 196.496094 185 220 161.496094 220 132.5 C 220 103.503906 196.496094 80 167.5 80 Z M 167.5 80 "/>
<path style=" stroke:none;fill-rule:nonzero;fill:rgb(11.372549%,85.490197%,91.764706%);fill-opacity:1;" d="M 120 140 C 97.910156 140 80 157.910156 80 180 C 80 202.089844 97.910156 220 120 220 C 142.089844 220 160 202.089844 160 180 C 160 157.910156 142.089844 140 120 140 Z M 120 140 "/>
<path style=" stroke:none;fill-rule:nonzero;fill:rgb(0.784314%,44.313726%,47.058824%);fill-opacity:1;" d="M 111.59375 170 L 28.40625 170 C 23.765625 170 20 166.234375 20 161.59375 L 20 78.40625 C 20 73.765625 23.765625 70 28.40625 70 L 111.59375 70 C 116.234375 70 120 73.765625 120 78.40625 L 120 161.59375 C 120 166.234375 116.234375 170 111.59375 170 Z M 111.59375 170 "/>
<path style=" stroke:none;fill-rule:nonzero;fill:rgb(100%,100%,100%);fill-opacity:1;" d="M 52.160156 143.75 L 52.160156 132.261719 C 54.289062 134.003906 64.113281 137.5 66.660156 137.5 C 68.15625 137.5 77.351562 137.941406 77.351562 132.296875 C 77.351562 124.128906 51.941406 124.824219 51.941406 108.671875 C 51.941406 105.988281 52.269531 93.375 72.605469 93.375 C 77.808594 93.375 83.960938 94.679688 85.746094 95.351562 L 85.746094 106.085938 C 84.863281 105.484375 81.296875 102.496094 73.265625 102.496094 C 63.878906 102.496094 63.066406 106.910156 63.066406 107.699219 C 63.066406 114.496094 88.054688 115.421875 88.054688 131.253906 C 88.054688 147.113281 69.984375 146.625 67.171875 146.625 C 64.285156 146.625 54.070312 144.710938 52.160156 143.75 Z M 52.160156 143.75 "/>
</g>
</svg>
