<?xml version="1.0" standalone="no"?>
<!DOCTYPE svg PUBLIC "-//W3C//DTD SVG 20010904//EN"
 "http://www.w3.org/TR/2001/REC-SVG-20010904/DTD/svg10.dtd">
<svg version="1.0" xmlns="http://www.w3.org/2000/svg"
 width="700.000000pt" height="700.000000pt" viewBox="0 0 700.000000 700.000000"
 preserveAspectRatio="xMidYMid meet">
<metadata>
Created by potrace 1.14, written by Peter Selinger 2001-2017
</metadata>
<g transform="translate(0.000000,700.000000) scale(0.100000,-0.100000)"
fill="#000000" stroke="none">
<path d="M4558 6185 c-2 -1 -34 -5 -73 -9 -89 -8 -169 -27 -275 -65 -530 -187
-917 -734 -990 -1401 -14 -121 -13 -391 0 -512 49 -428 216 -795 490 -1069
216 -216 443 -337 727 -385 140 -24 372 -15 504 19 601 156 1024 697 1113
1422 19 154 15 461 -8 605 -50 317 -159 590 -330 825 -213 294 -523 495 -848
551 -76 13 -301 27 -310 19z m248 -630 c43 -9 120 -36 169 -59 159 -76 271
-188 362 -363 112 -216 149 -397 147 -708 -3 -247 -43 -435 -134 -620 -163
-333 -442 -495 -795 -463 -169 16 -313 80 -434 194 -116 109 -190 226 -250
397 -53 151 -72 263 -78 467 -8 293 27 489 126 695 120 249 294 398 531 454
99 24 255 26 356 6z"/>
<path d="M2129 6133 c-1 -5 -2 -564 -3 -1243 -2 -989 -5 -1245 -16 -1285 -48
-182 -142 -266 -295 -266 -80 0 -147 25 -195 74 -69 68 -108 168 -119 307 l-6
75 -280 0 -280 0 2 -103 c3 -173 47 -361 116 -497 107 -215 292 -370 518 -435
92 -27 300 -38 408 -21 316 49 551 260 654 586 62 197 61 167 61 1550 l1 1260
-282 3 c-156 1 -283 -1 -284 -5z"/>
<path d="M2482 2433 c0 -164 -1 -309 -1 -321 -1 -22 -4 -21 -50 20 -69 62
-197 126 -286 144 -11 2 -33 7 -49 10 -47 10 -196 7 -266 -6 -201 -36 -384
-167 -473 -338 -57 -109 -81 -212 -81 -352 0 -262 115 -474 326 -601 158 -96
339 -123 552 -83 92 17 216 83 280 150 24 24 45 42 47 40 2 -3 3 -45 3 -95
l-2 -91 197 0 198 0 0 910 0 910 -197 0 -197 0 -1 -297z m-303 -454 c218 -50
346 -259 296 -485 -49 -220 -275 -350 -503 -290 -195 52 -307 208 -298 415 8
174 110 303 281 357 49 15 164 17 224 3z"/>
<path d="M3877 2294 c-1 -1 -31 -4 -67 -8 -215 -20 -423 -131 -527 -281 -54
-78 -96 -174 -109 -250 -4 -22 -8 -49 -11 -60 -3 -17 -4 -120 -2 -192 2 -43
41 -177 66 -228 96 -190 288 -330 508 -369 17 -3 41 -8 55 -11 42 -9 238 -6
308 5 251 41 460 200 542 414 l9 23 -210 0 -209 0 -15 -24 c-61 -93 -155 -136
-295 -136 -128 0 -194 25 -271 103 -47 47 -61 68 -78 124 -12 38 -21 72 -21
76 0 4 254 7 565 6 l565 -1 2 30 c9 172 0 249 -42 357 -38 101 -115 199 -223
285 -55 43 -213 105 -315 123 -52 9 -218 19 -225 14z m145 -295 c99 -21 196
-87 233 -158 21 -41 35 -110 24 -117 -8 -4 -500 -8 -686 -5 -42 1 -43 23 -8
97 43 91 139 167 227 181 18 3 35 7 37 9 9 8 122 4 173 -7z"/>
<path d="M4813 2258 c3 -7 35 -85 72 -173 36 -88 72 -173 80 -190 7 -16 52
-124 99 -240 48 -115 91 -219 95 -230 5 -11 16 -36 24 -55 8 -19 38 -91 67
-160 28 -69 68 -164 88 -212 l36 -88 237 0 c180 0 238 3 242 12 35 86 524
1254 538 1285 10 23 19 47 19 52 0 17 -409 15 -415 -1 -2 -7 -26 -74 -53 -148
-58 -155 -311 -836 -321 -864 -6 -14 -21 18 -60 120 -29 76 -54 144 -55 149
-2 6 -7 21 -13 35 -6 14 -68 181 -138 373 l-129 347 -209 0 c-163 0 -208 -3
-204 -12z"/>
<path d="M755 1286 c-143 -39 -208 -161 -149 -278 70 -140 315 -156 417 -27
34 43 45 118 27 174 -33 101 -174 164 -295 131z"/>
</g>
</svg>
